<svg xmlns="http://www.w3.org/2000/svg" viewBox="0.09615373611450195 9.470000267028809 399.683837890625 36.39999771118164" data-asc="0.9052734375" width="399.683837890625" height="36.39999771118164"><defs/><g fill="#000000"><g transform="translate(0, 0)"><path d="M0.10 35.11L4.37 34.52Q4.54 38.62 5.91 40.14Q7.28 41.65 9.69 41.65Q11.47 41.65 12.77 40.83Q14.06 40.01 14.55 38.61Q15.04 37.21 15.04 34.13L15.04 9.47L19.78 9.47L19.78 33.86Q19.78 38.35 18.69 40.82Q17.60 43.29 15.25 44.58Q12.89 45.87 9.72 45.87Q5.00 45.87 2.50 43.16Q0 40.45 0.10 35.11ZM43.87 42.07Q41.43 44.14 39.17 45.00Q36.91 45.85 34.33 45.85Q30.05 45.85 27.76 43.76Q25.46 41.67 25.46 38.43Q25.46 36.52 26.33 34.95Q27.20 33.37 28.60 32.42Q30.00 31.47 31.76 30.98Q33.06 30.64 35.67 30.32Q40.99 29.69 43.51 28.81Q43.53 27.91 43.53 27.66Q43.53 24.98 42.29 23.88Q40.60 22.39 37.28 22.39Q34.18 22.39 32.70 23.47Q31.23 24.56 30.52 27.32L26.22 26.73Q26.81 23.97 28.15 22.28Q29.49 20.58 32.03 19.67Q34.57 18.75 37.92 18.75Q41.24 18.75 43.31 19.53Q45.39 20.31 46.36 21.50Q47.34 22.68 47.73 24.49Q47.95 25.61 47.95 28.54L47.95 34.40Q47.95 40.53 48.23 42.15Q48.51 43.77 49.34 45.26L44.75 45.26Q44.07 43.90 43.87 42.07M43.51 32.25Q41.11 33.23 36.33 33.91Q33.62 34.30 32.50 34.79Q31.37 35.28 30.76 36.22Q30.15 37.16 30.15 38.31Q30.15 40.06 31.48 41.24Q32.81 42.41 35.38 42.41Q37.92 42.41 39.89 41.30Q41.87 40.19 42.80 38.26Q43.51 36.77 43.51 33.86L43.51 32.25ZM52.44 45.26L52.44 41.70L68.95 22.75Q66.14 22.90 63.99 22.90L53.42 22.90L53.42 19.34L74.61 19.34L74.61 22.24L60.57 38.70L57.86 41.70Q60.82 41.48 63.40 41.48L75.39 41.48L75.39 45.26L52.44 45.26ZM83.81 45.26L79.74 45.26L79.74 9.47L84.13 9.47L84.13 22.24Q86.91 18.75 91.24 18.75Q93.63 18.75 95.76 19.71Q97.90 20.68 99.28 22.42Q100.66 24.17 101.44 26.64Q102.22 29.10 102.22 31.91Q102.22 38.57 98.93 42.21Q95.63 45.85 91.02 45.85Q86.43 45.85 83.81 42.02L83.81 45.26M83.76 32.10Q83.76 36.77 85.03 38.84Q87.11 42.24 90.65 42.24Q93.53 42.24 95.63 39.73Q97.73 37.23 97.73 32.28Q97.73 27.20 95.72 24.78Q93.70 22.36 90.84 22.36Q87.96 22.36 85.86 24.87Q83.76 27.37 83.76 32.10ZM124.49 42.07Q122.05 44.14 119.79 45.00Q117.53 45.85 114.94 45.85Q110.67 45.85 108.37 43.76Q106.08 41.67 106.08 38.43Q106.08 36.52 106.95 34.95Q107.81 33.37 109.22 32.42Q110.62 31.47 112.38 30.98Q113.67 30.64 116.28 30.32Q121.61 29.69 124.12 28.81Q124.15 27.91 124.15 27.66Q124.15 24.98 122.90 23.88Q121.22 22.39 117.90 22.39Q114.79 22.39 113.32 23.47Q111.84 24.56 111.13 27.32L106.84 26.73Q107.42 23.97 108.76 22.28Q110.11 20.58 112.65 19.67Q115.19 18.75 118.53 18.75Q121.85 18.75 123.93 19.53Q126.00 20.31 126.98 21.50Q127.95 22.68 128.34 24.49Q128.56 25.61 128.56 28.54L128.56 34.40Q128.56 40.53 128.85 42.15Q129.13 43.77 129.96 45.26L125.37 45.26Q124.68 43.90 124.49 42.07M124.12 32.25Q121.73 33.23 116.94 33.91Q114.23 34.30 113.11 34.79Q111.99 35.28 111.38 36.22Q110.77 37.16 110.77 38.31Q110.77 40.06 112.10 41.24Q113.43 42.41 115.99 42.41Q118.53 42.41 120.51 41.30Q122.49 40.19 123.41 38.26Q124.12 36.77 124.12 33.86L124.12 32.25ZM150.63 45.26L150.63 9.47L155.37 9.47L155.37 45.26L150.63 45.26ZM163.16 45.26L163.16 19.34L167.11 19.34L167.11 23.02Q169.97 18.75 175.37 18.75Q177.71 18.75 179.68 19.59Q181.64 20.43 182.62 21.80Q183.59 23.17 183.98 25.05Q184.23 26.27 184.23 29.32L184.23 45.26L179.83 45.26L179.83 29.49Q179.83 26.81 179.32 25.48Q178.81 24.15 177.50 23.35Q176.20 22.56 174.44 22.56Q171.63 22.56 169.59 24.34Q167.55 26.12 167.55 31.10L167.55 45.26L163.16 45.26ZM190.97 45.26L190.97 19.34L194.92 19.34L194.92 23.02Q197.78 18.75 203.17 18.75Q205.52 18.75 207.48 19.59Q209.45 20.43 210.42 21.80Q211.40 23.17 211.79 25.05Q212.04 26.27 212.04 29.32L212.04 45.26L207.64 45.26L207.64 29.49Q207.64 26.81 207.13 25.48Q206.62 24.15 205.31 23.35Q204.00 22.56 202.25 22.56Q199.44 22.56 197.40 24.34Q195.36 26.12 195.36 31.10L195.36 45.26L190.97 45.26ZM217.14 32.30Q217.14 25.10 221.14 21.63Q224.49 18.75 229.30 18.75Q234.64 18.75 238.04 22.25Q241.43 25.76 241.43 31.93Q241.43 36.94 239.93 39.81Q238.43 42.68 235.56 44.26Q232.69 45.85 229.30 45.85Q223.85 45.85 220.50 42.36Q217.14 38.87 217.14 32.30M221.66 32.30Q221.66 37.28 223.83 39.76Q226.00 42.24 229.30 42.24Q232.57 42.24 234.74 39.75Q236.91 37.26 236.91 32.15Q236.91 27.34 234.73 24.87Q232.54 22.39 229.30 22.39Q226.00 22.39 223.83 24.85Q221.66 27.32 221.66 32.30ZM253.78 45.26L243.92 19.34L248.56 19.34L254.13 34.86Q255.03 37.38 255.79 40.09Q256.37 38.04 257.42 35.16L263.18 19.34L267.70 19.34L257.89 45.26L253.78 45.26ZM288.50 42.07Q286.06 44.14 283.80 45.00Q281.54 45.85 278.96 45.85Q274.68 45.85 272.39 43.76Q270.09 41.67 270.09 38.43Q270.09 36.52 270.96 34.95Q271.83 33.37 273.23 32.42Q274.63 31.47 276.39 30.98Q277.69 30.64 280.30 30.32Q285.62 29.69 288.13 28.81Q288.16 27.91 288.16 27.66Q288.16 24.98 286.91 23.88Q285.23 22.39 281.91 22.39Q278.81 22.39 277.33 23.47Q275.85 24.56 275.15 27.32L270.85 26.73Q271.44 23.97 272.78 22.28Q274.12 20.58 276.66 19.67Q279.20 18.75 282.54 18.75Q285.86 18.75 287.94 19.53Q290.01 20.31 290.99 21.50Q291.97 22.68 292.36 24.49Q292.58 25.61 292.58 28.54L292.58 34.40Q292.58 40.53 292.86 42.15Q293.14 43.77 293.97 45.26L289.38 45.26Q288.70 43.90 288.50 42.07M288.13 32.25Q285.74 33.23 280.96 33.91Q278.25 34.30 277.12 34.79Q276.00 35.28 275.39 36.22Q274.78 37.16 274.78 38.31Q274.78 40.06 276.11 41.24Q277.44 42.41 280.00 42.41Q282.54 42.41 284.52 41.30Q286.50 40.19 287.43 38.26Q288.13 36.77 288.13 33.86L288.13 32.25ZM308.98 41.33L309.62 45.21Q307.76 45.61 306.30 45.61Q303.91 45.61 302.59 44.85Q301.27 44.09 300.73 42.86Q300.20 41.63 300.20 37.67L300.20 22.75L296.97 22.75L296.97 19.34L300.20 19.34L300.20 12.92L304.57 10.28L304.57 19.34L308.98 19.34L308.98 22.75L304.57 22.75L304.57 37.92Q304.57 39.79 304.80 40.33Q305.03 40.87 305.55 41.19Q306.08 41.50 307.06 41.50Q307.79 41.50 308.98 41.33ZM313.31 14.53L313.31 9.47L317.70 9.47L317.70 14.53L313.31 14.53M313.31 45.26L313.31 19.34L317.70 19.34L317.70 45.26L313.31 45.26ZM322.75 32.30Q322.75 25.10 326.76 21.63Q330.10 18.75 334.91 18.75Q340.26 18.75 343.65 22.25Q347.05 25.76 347.05 31.93Q347.05 36.94 345.54 39.81Q344.04 42.68 341.17 44.26Q338.31 45.85 334.91 45.85Q329.47 45.85 326.11 42.36Q322.75 38.87 322.75 32.30M327.27 32.30Q327.27 37.28 329.44 39.76Q331.62 42.24 334.91 42.24Q338.18 42.24 340.36 39.75Q342.53 37.26 342.53 32.15Q342.53 27.34 340.34 24.87Q338.16 22.39 334.91 22.39Q331.62 22.39 329.44 24.85Q327.27 27.32 327.27 32.30ZM352.20 45.26L352.20 19.34L356.15 19.34L356.15 23.02Q359.01 18.75 364.40 18.75Q366.75 18.75 368.71 19.59Q370.68 20.43 371.66 21.80Q372.63 23.17 373.02 25.05Q373.27 26.27 373.27 29.32L373.27 45.26L368.87 45.26L368.87 29.49Q368.87 26.81 368.36 25.48Q367.85 24.15 366.54 23.35Q365.23 22.56 363.48 22.56Q360.67 22.56 358.63 24.34Q356.59 26.12 356.59 31.10L356.59 45.26L352.20 45.26ZM378.25 37.52L382.59 36.84Q382.96 39.45 384.63 40.84Q386.30 42.24 389.31 42.24Q392.33 42.24 393.80 41.00Q395.26 39.77 395.26 38.11Q395.26 36.62 393.97 35.77Q393.07 35.18 389.48 34.28Q384.64 33.06 382.78 32.17Q380.91 31.27 379.94 29.70Q378.98 28.13 378.98 26.22Q378.98 24.49 379.77 23.01Q380.57 21.53 381.93 20.56Q382.96 19.80 384.73 19.27Q386.50 18.75 388.53 18.75Q391.58 18.75 393.88 19.63Q396.19 20.51 397.29 22.01Q398.39 23.51 398.80 26.03L394.51 26.61Q394.21 24.61 392.81 23.49Q391.41 22.36 388.84 22.36Q385.82 22.36 384.52 23.36Q383.23 24.37 383.23 25.71Q383.23 26.56 383.76 27.25Q384.30 27.95 385.45 28.42Q386.11 28.66 389.33 29.54Q393.99 30.79 395.84 31.58Q397.68 32.37 398.73 33.89Q399.78 35.40 399.78 37.65Q399.78 39.84 398.50 41.78Q397.22 43.73 394.80 44.79Q392.38 45.85 389.33 45.85Q384.28 45.85 381.63 43.75Q378.98 41.65 378.25 37.52Z"/></g></g></svg>